<svg version="1.0" viewBox="0 0 1920 800" xmlns="http://www.w3.org/2000/svg">
 <path d="m917.2 758.41-42.012-16.44v-45.968c0-29.318 0.23019-45.968 0.63538-45.968 0.34954 0 5.887 2.0597 12.306 4.5772 6.4186 2.5174 11.87 4.5772 12.115 4.5772s0.44494-45.282 0.44494-100.63c0-79.893-0.16836-100.69-0.8173-100.95-0.44952-0.17869-7.7321-3.0348-16.183-6.3471-8.4514-3.3124-15.734-6.1718-16.184-6.3543-0.64782-0.2626-0.8173 6.9469-0.8173 34.765 0 34.404-0.0243 35.089-1.265 34.695-0.6958-0.22102-13.128-5.0562-27.626-10.745l-26.361-10.344-0.16602-81.169c-0.098-47.915 0.0758-81.169 0.42371-81.169 0.32437 0 33.699 12.947 74.166 28.771s73.967 28.766 74.445 28.76c0.47806-7e-3 33.089-12.619 72.469-28.028l71.6-28.018 0.166 81.099c0.092 44.605 0.066 81.199-0.056 81.321-0.1222 0.12213-12.555 5.0558-27.629 10.964l-27.407 10.741-0.1691-34.936c-0.093-19.215-0.3872-34.933-0.6539-34.929-0.2666 7e-3 -7.8408 2.8984-16.832 6.4314l-16.347 6.4239-0.1655 100.8c-0.091 55.442-0.045 100.8 0.1028 100.8 0.1476 0 5.8942-2.2068 12.77-4.9041 6.8761-2.6972 12.641-4.9041 12.811-4.9041 0.1702 0 0.3093 20.713 0.3093 46.028 0 36.212-0.1743 46.098-0.8174 46.357-0.4495 0.18075-18.558 7.2741-40.24 15.763-21.683 8.489-39.779 15.418-40.213 15.397-0.43465-0.0202-19.695-7.4352-42.802-16.477zm250.93-74.019c-3.0568-0.50483-8.0589-1.7006-11.116-2.6572-3.0569-0.95655-7.9836-3.0182-10.948-4.5814-2.9645-1.5633-7.2044-4.2384-9.4218-5.9447-2.2175-1.7064-5.5502-4.6207-7.4058-6.4763-1.8555-1.8556-4.7038-5.1127-6.3294-7.2378s-4.1536-5.8613-5.6178-8.3026c-1.4641-2.4412-3.734-7.1173-5.0444-10.391-1.3104-3.2739-3.2333-9.2524-4.2731-13.285-1.04-4.033-2.4126-10.832-3.0504-15.11-0.8704-5.838-1.1646-11.935-1.1798-24.451-0.015-12.568 0.2732-18.848 1.1719-25.501 0.6557-4.855 1.9254-12.323 2.8213-16.597 0.896-4.2729 2.665-11.335 3.9311-15.693 1.266-4.3579 3.1943-10.278 4.2851-13.155 1.0907-2.8771 3.4491-8.5776 5.2408-12.668s5.1348-10.917 7.4291-15.17c2.2943-4.2527 5.3955-9.7333 6.8918-12.179 1.4962-2.4459 4.1969-6.654 6.0014-9.3512 1.8044-2.6972 5.2038-7.4051 7.5541-10.462 2.3502-3.0569 7.0058-8.6694 10.346-12.472 3.3398-3.8027 8.8001-9.4194 12.134-12.481 3.3339-3.0621 9.004-7.8726 12.6-10.69 3.5963-2.8171 9.83-7.2751 13.853-9.9064 4.0227-2.6313 11.232-6.8304 16.02-9.3313 4.7883-2.5006 11.207-5.626 14.264-6.945 3.0569-1.3186 8.7946-3.5671 12.751-4.9959 3.9559-1.4288 11.084-3.5982 15.84-4.8205 4.756-1.2224 12.054-2.6692 16.217-3.215 4.1634-0.54578 10.571-0.99044 14.239-0.98819 3.6677 0 9.5533 0.4383 13.079 0.96985 3.5257 0.53165 9.0346 1.8454 12.242 2.9201 3.2076 1.0748 7.679 2.8823 9.9367 4.0174 2.2576 1.1347 5.723 3.1277 7.701 4.428s5.9999 4.6644 8.9374 7.4751c2.9378 2.8108 6.9817 7.5508 8.9867 10.533 2.0049 2.9823 4.9544 8.1876 6.5544 11.567 1.6001 3.3798 3.7755 8.793 4.8343 12.03s2.0803 5.4436 2.2702 4.9041c0.1897-0.53945 1.4218-4.806 2.738-9.4812 1.3161-4.6752 3.5922-11.59 5.0579-15.366 1.4657-3.7762 4.2526-10.248 6.1933-14.381 1.9406-4.1339 5.3363-10.732 7.5458-14.663 2.2096-3.9312 6.208-10.406 8.8854-14.389 2.6773-3.9829 7.1581-10.184 9.9571-13.78s7.9822-9.673 11.518-13.504c3.536-3.8304 8.7766-9.0866 11.645-11.68 2.8689-2.5935 8.4596-7.1428 12.424-10.11 3.964-2.9674 9.8557-7.0199 13.092-9.0058 3.2368-1.9858 9.4159-5.3742 13.732-7.5294s11.819-5.3967 16.674-7.2035c4.855-1.8064 12.505-4.1773 17.001-5.2682 4.4955-1.0909 11.077-2.3373 14.626-2.7699 3.753-0.45748 8.8144-0.60657 12.097-0.3559 3.1042 0.23711 7.5565 0.90616 9.8941 1.4868 2.3376 0.58065 5.7868 1.7319 7.6649 2.5579l3.4146 1.5022 0.1817-8.8781 0.1816-8.8781 32.32-12.656c17.776-6.9608 32.415-12.656 32.53-12.656 0.1156 0 0.2055 25.82 0.1998 57.378l-0.01 57.378-31.805 12.424c-17.493 6.833-32.156 12.51-32.584 12.616-0.453 0.11163-1.6436-2.2125-2.8469-5.5582-1.1375-3.1625-3.2343-7.8509-4.6594-10.419-1.4252-2.5676-4.088-6.3062-5.9172-8.3079-2.0038-2.1926-4.8051-4.3658-7.0467-5.4664-3.335-1.6379-4.3982-1.8248-10.259-1.8034-5.5296 0.0187-7.1724 0.28659-10.644 1.7296-2.2581 0.93842-5.7889 2.6935-7.8462 3.8998-2.0573 1.2062-6.2418 4.7081-9.2989 7.7815-3.5589 3.5777-6.7295 7.5763-8.8139 11.116-1.7906 3.0404-4.3886 8.3236-5.7735 11.74-1.3849 3.4165-3.4992 9.7745-4.6987 14.129-1.1993 4.3549-2.6684 11.122-3.2645 15.039-0.5962 3.9166-1.2492 11.829-1.4511 17.583-0.2735 7.7928-0.086 12.66 0.7331 19.076 0.6052 4.7378 1.6706 10.623 2.3677 13.078 0.6971 2.4549 2.3178 6.5978 3.6015 9.2066s3.957 6.4966 5.9407 8.639c2.0904 2.2578 5.0431 4.5984 7.0238 5.5676 2.0243 0.99012 5.1373 1.8323 7.6368 2.0656 2.9339 0.27422 5.5143 0.063 8.4686-0.69229 2.3371-0.59789 6.4094-2.1529 9.0499-3.4566 3.1723-1.5659 6.5752-4.0391 10.032-7.2908 2.8771-2.7066 6.341-6.5569 7.6976-8.5562s3.5457-5.7796 4.8647-8.4008c1.3191-2.6212 3.3073-7.4762 4.4183-10.789s2.817-9.9955 3.7911-14.851l1.7709-8.8275 5.8327-0.58216c3.2081-0.31992 20.986-2.0855 39.508-3.923l33.675-3.3412 0.1655-107.07c0.1015-65.725-0.069-107.07-0.443-107.07-0.3347 0-6.2418 2.2068-13.127 4.9041-6.8851 2.6973-12.791 4.9042-13.125 4.9042-0.3664 0-0.6064-16.644-0.6064-42.044v-42.044l133.72-52.312 0.3269 74.561 0.3269 74.56 4.2466-5.2166c2.3357-2.8688 7.658-9.0414 11.828-13.717 4.1695-4.6753 10.359-11.149 13.755-14.385 3.3958-3.2367 8.8133-8.1018 12.039-10.812 3.2258-2.7096 7.9247-6.4247 10.442-8.2562 2.5175-1.8311 6.784-4.7363 9.4812-6.4562 2.6973-1.7198 8.2879-4.8164 12.424-6.8813 4.1358-2.065 10.112-4.6647 13.281-5.7773 3.1689-1.1123 8.6587-2.613 12.199-3.3345 3.6295-0.73948 8.9599-1.307 12.22-1.3007 3.1802 9e-3 7.7874 0.43643 10.238 0.95564 2.4508 0.5192 6.5702 1.9697 9.1542 3.2236 2.5842 1.2539 6.5201 3.7657 8.7467 5.5818 2.4779 2.0215 5.335 5.2622 7.3654 8.3551 1.8245 2.7793 4.1899 7.3158 5.2564 10.082 1.0667 2.7658 2.655 7.4983 3.5298 10.517 0.8748 3.0186 2.2059 9.1488 2.9583 13.623 0.7522 4.474 1.8064 13.137 2.3426 19.25 0.7347 8.379 0.9755 21.218 0.9781 52.147 0 22.567 0.1241 41.031 0.272 41.031 0.1477 0 5.2235-1.9423 11.279-4.3171 6.0559-2.3747 11.381-4.4665 11.833-4.649 0.6563-0.26489 0.7881 8.2154 0.6539 42.026l-0.1683 42.358-64.734 25.372c-35.604 13.955-64.927 25.381-65.164 25.39-0.2365 0.0112-0.5726-32.276-0.747-71.745-0.2003-45.385-0.5865-74.647-1.0504-79.61-0.4035-4.3156-1.1906-10.347-1.7489-13.404-0.5667-3.1018-1.7296-6.7847-2.6316-8.3333-0.889-1.5266-2.4567-3.2101-3.4838-3.7414-1.0272-0.53118-3.0259-1.1508-4.4417-1.3771-1.5522-0.24833-4.1689 0-6.5909 0.61742-2.2092 0.56607-5.716 1.8877-7.7931 2.9377-2.077 1.0501-5.6889 3.318-8.0265 5.0402-2.3376 1.7224-5.8363 4.6231-7.7749 6.446s-5.5431 5.5968-8.0101 8.3862l-4.4852 5.0716v43.479c0 26.74 0.2369 43.479 0.6154 43.479 0.3385 0 6.6459-2.3541 14.017-5.2311 7.3705-2.8771 13.567-5.2312 13.77-5.2312 0.2028 0 0.3687 18.957 0.3687 42.126v42.125l-6.7022 2.6208c-3.6863 1.4415-40.21 15.735-81.165 31.763-40.954 16.028-74.572 29.142-74.706 29.142-0.1336 0-0.2429-6.963-0.2429-15.473v-15.473l-3.7598 5.2667c-2.0679 2.8965-6.16 8.1678-9.0937 11.714-2.9337 3.5454-8.9658 9.997-13.404 14.336-4.4388 4.3392-11.13 10.32-14.869 13.291-3.7394 2.9711-9.7722 7.3964-13.406 9.8348-3.634 2.438-9.8395 6.2947-13.79 8.5705-3.9504 2.2758-10.717 5.8141-15.037 7.8632-4.3203 2.0492-11.974 5.2686-17.009 7.1544-5.0349 1.8854-11.508 4.1373-14.385 5.0034-2.8771 0.86649-8.0263 2.2777-11.443 3.1363-3.4165 0.859-9.2355 2.033-12.931 2.6096-3.6956 0.57654-9.8747 1.2254-13.731 1.4419-3.9496 0.22178-10.154 0.0555-14.205-0.37986-3.956-0.42556-9.4971-1.358-12.314-2.0724s-7.719-2.4185-10.895-3.7878c-3.1755-1.3688-8.2655-4.1474-11.311-6.1737-3.0457-2.0267-7.6762-5.8227-10.29-8.436-2.6137-2.613-6.2069-6.8106-7.9848-9.328-1.778-2.5174-4.4063-6.8982-5.8406-9.7348s-3.7419-8.5746-5.1279-12.75c-1.3861-4.1762-2.9845-9.8794-3.5522-12.674s-1.3481-8.091-1.7342-11.77c-0.3862-3.6791-0.8295-7.3511-0.9849-8.1603-0.1555-0.80917-0.4977-1.47-0.7606-1.4689-0.2629 0-33.875 13.067-74.693 29.036l-74.215 29.034 0.1699 6.4367c0.094 3.5405 0.4686 9.0852 0.8337 12.322 0.3651 3.2367 1.2776 8.3858 2.0277 11.443 0.7502 3.0569 2.3784 7.6501 3.6183 10.207 1.2399 2.5568 3.4609 5.9044 4.9352 7.4388 1.4745 1.5344 3.9985 3.3727 5.609 4.0852s4.5846 1.4453 6.6093 1.6288c2.3052 0.20942 5.2656-0.0641 7.9206-0.7305 2.3317-0.58552 6.3332-2.0877 8.8922-3.3386 2.8012-1.3692 6.5083-3.9923 9.3157-6.5914 2.5647-2.3743 6.2583-6.718 8.2078-9.6524 1.9496-2.9344 4.5635-7.689 5.8087-10.566s2.9049-7.1971 3.6884-9.6l1.4243-4.3688 6.3369-1.4426c3.4854-0.79381 23.256-5.3432 43.935-10.11 20.679-4.7666 37.676-8.596 37.771-8.5098 0.095 0.0861-1.0263 3.6345-2.4919 7.885s-4.225 11.164-6.1319 15.365c-1.907 4.2002-5.3082 10.846-7.5582 14.767-2.25 3.9215-5.7203 9.4842-7.7116 12.361s-5.1082 7.1436-6.9262 9.4812-6.0357 7.3815-9.3725 11.209c-3.3367 3.827-9.0856 9.7278-12.775 13.113-3.6896 3.3849-8.9151 7.9405-11.612 10.124-2.6971 2.183-7.6993 5.8776-11.116 8.2103-3.4166 2.3327-9.1083 5.9341-12.648 8.0031-3.54 2.0691-10.013 5.4603-14.385 7.5361-4.3718 2.0758-10.638 4.8255-13.924 6.1106-3.2865 1.285-9.6128 3.5437-14.058 5.0192-4.4455 1.4756-12.147 3.6847-17.114 4.9093s-12.029 2.6907-15.693 3.258c-3.6642 0.56729-11.223 1.158-16.797 1.3127-6.8743 0.19071-11.923-0.0142-15.693-0.63678zm70.619-173.9 29.098-11.381 0.4527-2.5133c0.249-1.382 0.4697-4.7277 0.4904-7.4343 0.022-2.7066-0.263-7.4148-0.6306-10.462-0.3675-3.0475-1.2788-7.5931-2.0251-10.102s-2.0822-5.9924-2.9689-7.7422c-0.8866-1.7498-2.8443-4.5243-4.3502-6.1662-1.506-1.6412-4.0079-3.5499-5.5599-4.2407-1.7425-0.77545-4.3685-1.2707-6.8657-1.2947-2.5124-0.0262-5.4595 0.46828-7.7817 1.2999-2.0557 0.7365-5.5585 2.6152-7.784 4.1751-2.2254 1.5599-5.4766 4.6018-7.2249 6.7596-1.7482 2.1578-4.3201 6.1299-5.7154 8.8271-1.3951 2.6972-3.4243 7.6995-4.5093 11.116-1.0849 3.4165-2.4243 8.4188-2.9764 11.116s-1.3138 7.3976-1.6923 10.445c-0.3787 3.0475-0.6885 8.5645-0.6885 12.26 0 4.9397 0.2164 6.7191 0.8174 6.7188 0.4495 0 13.911-5.1221 29.915-11.382zm-522.12 171.15c-1.0789-0.13018-4.9041-0.70349-8.5004-1.2742-3.5964-0.57057-9.7835-1.8782-13.749-2.906-3.9656-1.0277-10.292-2.9391-14.058-4.2474-3.7664-1.3083-10.085-3.7086-14.041-5.3341-3.9559-1.6254-11.312-4.9642-16.347-7.4194-5.0348-2.4552-12.538-6.4808-16.674-8.9456-4.1358-2.4648-9.8736-6.0596-12.751-7.9884-2.8771-1.9289-7.7321-5.4322-10.789-7.7852s-8.5005-6.8245-12.097-9.9368c-3.5963-3.1122-9.0477-8.2957-12.114-11.519-3.0665-3.2232-7.8586-8.5514-10.649-11.841-2.7905-3.2888-7.4035-9.2347-10.251-13.213-2.8476-3.9784-6.8351-9.9128-8.8608-13.188-2.0258-3.2749-5.5805-9.5205-7.8992-13.879-2.3187-4.3583-5.7896-11.603-7.7129-16.098-1.9233-4.4954-4.6959-11.851-6.1612-16.347-1.4653-4.4954-3.3911-11.116-4.2795-14.712-0.88838-3.5963-2.2236-10.217-2.9671-14.712s-1.6756-11.851-2.0712-16.347c-0.39574-4.4954-0.61779-14.038-0.49358-21.207l0.22579-13.034-5.231-1.2066c-2.8771-0.66382-8.762-1.3838-13.078-1.6-4.9383-0.24687-9.1795-0.11388-11.443 0.35888-1.9781 0.41321-5.2026 1.4958-7.1659 2.4062-1.9633 0.90995-4.8305 2.6879-6.3716 3.9507-1.5412 1.2628-3.5898 3.6402-4.5526 5.2832-0.96274 1.6427-2.4515 4.9184-3.3084 7.2788-0.85677 2.3605-1.9829 6.5131-2.5024 9.2283-0.51948 2.7152-1.2594 8.8807-1.6443 13.702-0.52473 6.5708-0.51117 8.8814 0.0543 9.2309 0.41463 0.25625 7.4961 3.0812 15.736 6.2782l14.982 5.8122v84.658l-3.1059-1.213c-1.7083-0.66719-39.077-15.276-83.042-32.465l-79.937-31.251v-84.668l9.9716 3.9185c5.4845 2.1552 11.812 4.6164 14.062 5.4694l4.0908 1.5505-0.33504-100.22-13.514-5.2772c-7.4324-2.9026-13.707-5.4709-13.943-5.7074-0.23646-0.23636-2.7928 1.1516-5.681 3.0847-2.8881 1.9333-7.5764 4.4114-10.418 5.5076-2.842 1.0961-7.1513 2.4043-9.5761 2.907-2.4249 0.50275-6.3315 1.1142-8.6814 1.3588-2.35 0.24459-7.6464 0.10934-11.77-0.3008-4.1234-0.40987-10.44-1.3449-14.036-2.078-3.5963-0.73274-10.805-2.5189-16.02-3.969-5.2147-1.4502-13.748-4.1081-18.963-5.9066-5.2146-1.7986-22.244-8.2379-37.842-14.309-15.598-6.071-28.472-11.039-28.607-11.039-0.13563 0-0.24647 12.168-0.24647 27.039v27.039l14.783 5.7864c8.1308 3.1828 14.901 6.095 15.045 6.4722 0.14386 0.37687 0.18539 21.188 0.0926 46.246l-0.1692 45.561-78.465-30.698c-43.156-16.884-81.923-32.051-86.148-33.704l-7.6831-3.0056v-46.022c0-25.312 0.24132-46.022 0.53623-46.022s6.5454 2.3542 13.89 5.2312c7.3445 2.8771 13.43 5.2312 13.524 5.2312 0.09381 0 0.09606-45.353 0.0094-100.78l-0.16565-100.78-27.463-10.781-0.16789-46.25c-0.14863-40.958-0.05519-46.206 0.81627-45.872 0.54128 0.20793 40.193 15.714 88.114 34.46 47.922 18.745 92.427 36.231 98.9 38.858 6.4734 2.6272 16.919 7.1634 23.213 10.081 6.2935 2.9171 15.709 7.6857 20.924 10.597 5.2146 2.9112 13.237 7.7756 17.828 10.81 4.5906 3.0344 11.211 7.8232 14.712 10.642 3.5012 2.8186 9.7727 8.6357 13.937 12.927 4.1642 4.2912 9.8054 10.609 12.536 14.039s6.8677 9.1503 9.1936 12.712 5.5884 8.944 7.2498 11.961c1.6615 3.0168 4.1585 8.0187 5.5488 11.116 1.3904 3.097 3.8864 9.5453 5.5468 14.329 1.6604 4.7843 3.6022 10.983 4.315 13.774 0.71283 2.792 1.8775 8.1463 2.5883 11.899 0.71067 3.7526 1.6032 9.7655 1.9833 13.362 0.38003 3.5963 0.76249 8.1258 0.84976 10.066l0.15863 3.527 103.64 40.535 0.0383 33.093 0.0383 33.092 1.8151-4.577c0.99829-2.5175 2.5822-6.0782 3.5199-7.9127 0.93759-1.8349 3.0777-5.3657 4.7558-7.8468 1.678-2.4807 4.5641-6.0785 6.4134-7.9947 1.8494-1.9158 5.128-4.8977 7.2858-6.6262 2.1577-1.7285 5.8857-4.2208 8.2844-5.5383 2.3986-1.3175 6.3709-2.979 8.8273-3.6923 2.9475-0.85593 6.4674-1.3033 10.351-1.3149 3.2367-0.0112 8.0918 0.45102 10.789 1.0242 2.6972 0.57355 6.9638 1.6308 9.4812 2.35 2.5175 0.71928 8.4722 2.6769 13.233 4.3504l8.6556 3.0427 0.17173 22.789 0.17164 22.788 4.5772-3.2213c2.5175-1.7715 6.497-4.2752 8.8434-5.563 2.3464-1.288 7.3486-3.3465 11.116-4.5748 3.7675-1.228 9.0566-2.6354 11.754-3.1269 3.0594-0.55784 9.3313-0.87548 16.674-0.8448 7.7737 0.0337 13.907 0.41735 18.064 1.1325 3.4616 0.59563 10.229 2.1005 15.039 3.3442 4.8099 1.2437 12.02 3.4345 16.023 4.8685 4.0029 1.434 10.182 3.8394 13.731 5.3454 3.5495 1.506 10.426 4.7157 15.281 7.1324 4.855 2.417 12.17 6.4037 16.256 8.8593 4.0856 2.4556 10.47 6.594 14.187 9.1965 3.7172 2.6021 9.6431 7.0308 13.169 9.8416 3.5256 2.8108 11.581 10.27 17.901 16.576 6.3198 6.3063 14.285 14.997 17.7 19.312 3.415 4.3156 8.1348 10.642 10.488 14.058s6.1058 9.253 8.3385 12.969c2.2327 3.7166 5.8024 10.254 7.9327 14.527 2.1303 4.2732 5.0188 10.648 6.4188 14.167 1.3999 3.5184 3.7691 10.222 5.2648 14.897 1.4957 4.6752 3.5769 12.767 4.6249 17.982 1.048 5.2147 2.3967 14.042 2.9972 19.616 0.81954 7.6077 0.99978 13.315 0.72274 22.886-0.23571 8.1431-0.84752 15.586-1.6932 20.597-0.72825 4.3156-2.0549 10.368-2.9483 13.449-0.89325 3.0814-2.2214 7.118-2.9516 8.9702-0.73003 1.8521-2.4822 5.6572-3.8938 8.4558s-4.4044 7.6657-6.6507 10.816c-2.2462 3.1503-6.1893 7.7274-8.7622 10.171-2.5728 2.444-6.6204 5.8297-8.9945 7.5238s-6.9207 4.4116-10.103 6.0388c-3.1829 1.6273-8.5823 3.8273-11.999 4.8891-3.4165 1.0617-9.1543 2.372-12.751 2.9118-3.6504 0.54787-10.294 0.9398-15.039 0.88732-4.6752-0.0516-9.3831-0.20065-10.462-0.33076zm-27.986-91.349c1.7263-0.88072 3.9124-2.438 4.8581-3.4607 0.94554-1.0223 2.4535-3.0453 3.351-4.495 0.89737-1.4501 2.3691-4.6868 3.2708-7.1926 0.90148-2.5062 2.1021-6.8042 2.668-9.5516 0.56578-2.7471 1.3569-9.4445 1.7581-14.882 0.53146-7.2061 0.53586-12.856 0.0168-20.833-0.39229-6.0201-1.1568-13.516-1.6991-16.658s-1.7173-8.236-2.6113-11.321c-0.89391-3.0846-2.3893-7.429-3.3231-9.6539-0.93375-2.2249-2.8559-6.0325-4.2713-8.4615-1.4154-2.4286-4.0619-6.2044-5.8811-8.3903-1.8191-2.1863-5.2629-5.4207-7.6529-7.1885-2.3898-1.7678-6.6991-4.1448-9.5762-5.2825-4.3864-1.7348-6.1285-2.0731-10.789-2.0967-4.4925-0.0225-6.1442 0.25774-8.6158 1.4625-1.6817 0.81967-4.5182 3.0344-6.3031 4.9214-1.7849 1.8873-3.8648 4.646-4.6221 6.1302-0.75725 1.4842-1.9464 4.144-2.6427 5.9103-0.69618 1.7663-1.726 5.4394-2.2885 8.1625-0.56242 2.7231-1.3223 9.1448-1.6886 14.27-0.45214 6.3265-0.45205 12.882 1.9e-4 20.414 0.36637 6.1018 0.96415 13.035 1.3283 15.408 0.36412 2.3724 1.2643 6.9319 2.0004 10.132 0.73602 3.2 2.0462 7.6991 2.9113 9.9978 0.86519 2.299 2.7648 6.47 4.2213 9.2695s4.0469 6.8266 5.7566 8.9488 4.816 5.2342 6.9029 6.9151c2.0869 1.6813 5.6626 3.9766 7.9461 5.1008s6.3067 2.6268 8.9404 3.339c3.3231 0.89872 6.0293 1.2022 8.8424 0.99125 2.5022-0.18769 5.2553-0.91669 7.1927-1.9053zm-458.09-338.21c0.94619-0.4773 2.4681-1.7562 3.3821-2.8422 0.91392-1.0864 2.337-3.6717 3.1623-5.7451 1.3492-3.39 1.5018-4.8573 1.5137-14.559 0.0112-9.3062-0.19165-11.5-1.4773-15.965-0.81992-2.8467-2.5069-7.2004-3.7491-9.6755-1.2421-2.4755-2.9976-5.5897-3.901-6.9215-0.90335-1.3314-3.1704-3.9802-5.0379-5.8859-1.8675-1.9061-5.0956-4.4984-7.1737-5.761-2.078-1.262-6.8003-3.7173-10.494-5.4559-3.6938-1.7385-12.735-5.5462-20.091-8.4615-7.3564-2.9149-13.609-5.3-13.895-5.3-0.28593 0-0.51976 16.279-0.51976 36.176v36.176l13.811 5.3672c7.596 2.952 16.797 6.2483 20.447 7.3246 3.6499 1.0767 8.9841 2.1855 11.854 2.4642 2.8698 0.27827 6.3947 0.37723 7.8333 0.21915 1.4385-0.15816 3.3896-0.67774 4.3358-1.1546z" style="fill:#000080"/>
</svg>
